<mxfile host="Electron" modified="2023-11-09T14:26:53.300Z" agent="Mozilla/5.0 (Windows NT 10.0; Win64; x64) AppleWebKit/537.36 (KHTML, like Gecko) draw.io/22.0.3 Chrome/114.0.5735.289 Electron/25.8.4 Safari/537.36" etag="H0cZvGU_8ZR8Fh8Bb3Hi" version="22.0.3" type="device">
  <diagram name="Page-1" id="2zbJhTjnq_1u7f0Tn5J5">
    <mxGraphModel dx="1290" dy="1790" grid="1" gridSize="10" guides="1" tooltips="1" connect="1" arrows="1" fold="1" page="1" pageScale="1" pageWidth="827" pageHeight="1169" math="0" shadow="0">
      <root>
        <mxCell id="0" />
        <mxCell id="1" parent="0" />
        <mxCell id="oa8Oe37T74u4FuCG3CYa-1" value="Base de données banque" style="rounded=0;whiteSpace=wrap;html=1;" vertex="1" parent="1">
          <mxGeometry y="-1168" width="654" height="60" as="geometry" />
        </mxCell>
        <mxCell id="oa8Oe37T74u4FuCG3CYa-2" value="1) MCD" style="rounded=0;whiteSpace=wrap;html=1;" vertex="1" parent="1">
          <mxGeometry y="-1088" width="180" height="60" as="geometry" />
        </mxCell>
        <mxCell id="oa8Oe37T74u4FuCG3CYa-13" value="1,n" style="text;html=1;align=center;verticalAlign=middle;resizable=0;points=[];autosize=1;strokeColor=none;fillColor=none;" vertex="1" parent="1">
          <mxGeometry x="411" y="-628" width="40" height="30" as="geometry" />
        </mxCell>
        <mxCell id="oa8Oe37T74u4FuCG3CYa-18" value="&amp;nbsp; &amp;nbsp; &amp;nbsp; &amp;nbsp; &amp;nbsp; &amp;nbsp; &amp;nbsp; &amp;nbsp; &amp;nbsp; &amp;nbsp; &amp;nbsp; &amp;nbsp; &amp;nbsp; &amp;nbsp; Conseiller&lt;br&gt;&lt;br&gt;Conseiller_id&amp;nbsp; &amp;nbsp; &amp;nbsp; &amp;nbsp; &amp;nbsp; &amp;nbsp; &amp;nbsp; &amp;nbsp;Séquentiel&lt;br&gt;Conseiller_nom&amp;nbsp; &amp;nbsp; &amp;nbsp; &amp;nbsp; &amp;nbsp; &amp;nbsp;Texte(50)&lt;br&gt;&lt;br&gt;&lt;br&gt;&lt;br&gt;" style="rounded=0;whiteSpace=wrap;html=1;align=left;" vertex="1" parent="1">
          <mxGeometry x="590" y="-708" width="260" height="210" as="geometry" />
        </mxCell>
        <mxCell id="oa8Oe37T74u4FuCG3CYa-21" value="" style="endArrow=none;html=1;rounded=0;exitX=0;exitY=0.25;exitDx=0;exitDy=0;" edge="1" parent="1">
          <mxGeometry width="50" height="50" relative="1" as="geometry">
            <mxPoint x="589" y="-635" as="sourcePoint" />
            <mxPoint x="850.7999877929688" y="-634" as="targetPoint" />
          </mxGeometry>
        </mxCell>
        <mxCell id="oa8Oe37T74u4FuCG3CYa-22" value="1,1" style="text;html=1;align=center;verticalAlign=middle;resizable=0;points=[];autosize=1;strokeColor=none;fillColor=none;" vertex="1" parent="1">
          <mxGeometry x="550" y="-625" width="40" height="30" as="geometry" />
        </mxCell>
        <mxCell id="oa8Oe37T74u4FuCG3CYa-29" value="" style="endArrow=none;html=1;rounded=0;entryX=0.918;entryY=-0.103;entryDx=0;entryDy=0;entryPerimeter=0;exitX=0.5;exitY=0;exitDx=0;exitDy=0;" edge="1" parent="1">
          <mxGeometry width="50" height="50" relative="1" as="geometry">
            <mxPoint x="228" y="-447" as="sourcePoint" />
            <mxPoint x="228.98000000000002" y="-486.18000000000006" as="targetPoint" />
          </mxGeometry>
        </mxCell>
        <mxCell id="oa8Oe37T74u4FuCG3CYa-31" value="1,n" style="text;html=1;align=center;verticalAlign=middle;resizable=0;points=[];autosize=1;strokeColor=none;fillColor=none;" vertex="1" parent="1">
          <mxGeometry x="241" y="-480" width="40" height="30" as="geometry" />
        </mxCell>
        <mxCell id="oa8Oe37T74u4FuCG3CYa-32" value="1,n" style="text;html=1;align=center;verticalAlign=middle;resizable=0;points=[];autosize=1;strokeColor=none;fillColor=none;" vertex="1" parent="1">
          <mxGeometry x="230" y="-378" width="40" height="30" as="geometry" />
        </mxCell>
        <mxCell id="oa8Oe37T74u4FuCG3CYa-34" value="" style="endArrow=none;html=1;rounded=0;entryX=0.918;entryY=-0.103;entryDx=0;entryDy=0;entryPerimeter=0;exitX=0.5;exitY=0;exitDx=0;exitDy=0;" edge="1" parent="1">
          <mxGeometry width="50" height="50" relative="1" as="geometry">
            <mxPoint x="227" y="-346" as="sourcePoint" />
            <mxPoint x="227.98000000000002" y="-385.18000000000006" as="targetPoint" />
          </mxGeometry>
        </mxCell>
        <mxCell id="oa8Oe37T74u4FuCG3CYa-37" value="&amp;nbsp; &amp;nbsp; &amp;nbsp; &amp;nbsp; &amp;nbsp; &amp;nbsp; &amp;nbsp; &amp;nbsp; &amp;nbsp; &amp;nbsp; &amp;nbsp; &amp;nbsp; &amp;nbsp; &amp;nbsp; &amp;nbsp; &amp;nbsp;Compte&lt;br&gt;&lt;br&gt;Compte_id&amp;nbsp; &amp;nbsp; &amp;nbsp; &amp;nbsp; &amp;nbsp; &amp;nbsp; &amp;nbsp; &amp;nbsp;Séquentiel(8)&lt;br&gt;Client_id&lt;br&gt;date_ouvert&amp;nbsp; &amp;nbsp; &amp;nbsp; &amp;nbsp; &amp;nbsp; &amp;nbsp; &amp;nbsp; Date (50)&lt;br&gt;Type_compte&amp;nbsp; &amp;nbsp; &amp;nbsp; &amp;nbsp; &amp;nbsp; &amp;nbsp;Texte(50)&lt;br&gt;&lt;br&gt;" style="rounded=0;whiteSpace=wrap;html=1;align=left;" vertex="1" parent="1">
          <mxGeometry x="124.8" y="-348" width="260" height="210" as="geometry" />
        </mxCell>
        <mxCell id="oa8Oe37T74u4FuCG3CYa-39" value="" style="endArrow=none;html=1;rounded=0;exitX=0;exitY=0.25;exitDx=0;exitDy=0;" edge="1" parent="1">
          <mxGeometry width="50" height="50" relative="1" as="geometry">
            <mxPoint x="123" y="-277" as="sourcePoint" />
            <mxPoint x="384.79998779296875" y="-276" as="targetPoint" />
          </mxGeometry>
        </mxCell>
        <mxCell id="oa8Oe37T74u4FuCG3CYa-41" value="" style="group" vertex="1" connectable="0" parent="1">
          <mxGeometry x="173" y="-445" width="111" height="60" as="geometry" />
        </mxCell>
        <mxCell id="oa8Oe37T74u4FuCG3CYa-54" value="" style="group" vertex="1" connectable="0" parent="oa8Oe37T74u4FuCG3CYa-41">
          <mxGeometry width="111" height="60" as="geometry" />
        </mxCell>
        <mxCell id="oa8Oe37T74u4FuCG3CYa-23" value="Loger&lt;br&gt;&lt;br&gt;" style="rounded=1;whiteSpace=wrap;html=1;" vertex="1" parent="oa8Oe37T74u4FuCG3CYa-54">
          <mxGeometry width="110" height="60" as="geometry" />
        </mxCell>
        <mxCell id="oa8Oe37T74u4FuCG3CYa-26" value="" style="endArrow=none;html=1;rounded=0;exitX=0;exitY=0.25;exitDx=0;exitDy=0;" edge="1" parent="oa8Oe37T74u4FuCG3CYa-54">
          <mxGeometry width="50" height="50" relative="1" as="geometry">
            <mxPoint y="32" as="sourcePoint" />
            <mxPoint x="111" y="32" as="targetPoint" />
          </mxGeometry>
        </mxCell>
        <mxCell id="oa8Oe37T74u4FuCG3CYa-42" value="Mouvementer" style="rounded=1;whiteSpace=wrap;html=1;" vertex="1" parent="1">
          <mxGeometry x="171" y="-98" width="110" height="60" as="geometry" />
        </mxCell>
        <mxCell id="oa8Oe37T74u4FuCG3CYa-44" value="" style="endArrow=none;html=1;rounded=0;entryX=0.918;entryY=-0.103;entryDx=0;entryDy=0;entryPerimeter=0;exitX=0.5;exitY=0;exitDx=0;exitDy=0;" edge="1" parent="1">
          <mxGeometry width="50" height="50" relative="1" as="geometry">
            <mxPoint x="227" y="-99" as="sourcePoint" />
            <mxPoint x="227.98000000000002" y="-138.18000000000006" as="targetPoint" />
          </mxGeometry>
        </mxCell>
        <mxCell id="oa8Oe37T74u4FuCG3CYa-45" value="" style="endArrow=none;html=1;rounded=0;exitX=0;exitY=0.25;exitDx=0;exitDy=0;" edge="1" parent="1">
          <mxGeometry width="50" height="50" relative="1" as="geometry">
            <mxPoint x="169" y="-60" as="sourcePoint" />
            <mxPoint x="280" y="-60" as="targetPoint" />
          </mxGeometry>
        </mxCell>
        <mxCell id="oa8Oe37T74u4FuCG3CYa-46" value="0,n" style="text;html=1;align=center;verticalAlign=middle;resizable=0;points=[];autosize=1;strokeColor=none;fillColor=none;" vertex="1" parent="1">
          <mxGeometry x="236" y="-138" width="40" height="30" as="geometry" />
        </mxCell>
        <mxCell id="oa8Oe37T74u4FuCG3CYa-47" value="1,1" style="text;html=1;align=center;verticalAlign=middle;resizable=0;points=[];autosize=1;strokeColor=none;fillColor=none;" vertex="1" parent="1">
          <mxGeometry x="232" y="-31" width="40" height="30" as="geometry" />
        </mxCell>
        <mxCell id="oa8Oe37T74u4FuCG3CYa-50" value="" style="endArrow=none;html=1;rounded=0;entryX=0.918;entryY=-0.103;entryDx=0;entryDy=0;entryPerimeter=0;exitX=0.5;exitY=0;exitDx=0;exitDy=0;" edge="1" parent="1">
          <mxGeometry width="50" height="50" relative="1" as="geometry">
            <mxPoint x="226" as="sourcePoint" />
            <mxPoint x="226.98000000000002" y="-39.180000000000064" as="targetPoint" />
          </mxGeometry>
        </mxCell>
        <mxCell id="oa8Oe37T74u4FuCG3CYa-51" value="&amp;nbsp; &amp;nbsp; &amp;nbsp; &amp;nbsp; &amp;nbsp; &amp;nbsp; &amp;nbsp; &amp;nbsp; &amp;nbsp; &amp;nbsp; &amp;nbsp; &amp;nbsp; &amp;nbsp; operation&lt;br&gt;&lt;br&gt;&lt;br&gt;Operation_id&amp;nbsp; &amp;nbsp; &amp;nbsp; &amp;nbsp; &amp;nbsp; &amp;nbsp; &amp;nbsp;Séquentiel(8)&lt;br&gt;Operation_libelle&amp;nbsp; &amp;nbsp; &amp;nbsp; &amp;nbsp;Texte(50)&lt;br&gt;Operation_date&amp;nbsp; &amp;nbsp; &amp;nbsp; &amp;nbsp; &amp;nbsp; Date (50)&lt;br&gt;montant_debit&amp;nbsp; &amp;nbsp; &amp;nbsp; &amp;nbsp; &amp;nbsp; &amp;nbsp; Monnaie&lt;br&gt;montant_credit&amp;nbsp; &amp;nbsp; &amp;nbsp; &amp;nbsp; &amp;nbsp; &amp;nbsp;Monnaie&lt;br&gt;&lt;br&gt;" style="rounded=0;whiteSpace=wrap;html=1;align=left;" vertex="1" parent="1">
          <mxGeometry x="110.00000000000001" y="-1" width="260" height="210" as="geometry" />
        </mxCell>
        <mxCell id="oa8Oe37T74u4FuCG3CYa-52" value="" style="endArrow=none;html=1;rounded=0;exitX=0;exitY=0.25;exitDx=0;exitDy=0;" edge="1" parent="1">
          <mxGeometry width="50" height="50" relative="1" as="geometry">
            <mxPoint x="112" y="64" as="sourcePoint" />
            <mxPoint x="373.79998779296875" y="65" as="targetPoint" />
          </mxGeometry>
        </mxCell>
        <mxCell id="oa8Oe37T74u4FuCG3CYa-60" value="" style="group" vertex="1" connectable="0" parent="1">
          <mxGeometry x="450" y="-628" width="107" height="60" as="geometry" />
        </mxCell>
        <mxCell id="oa8Oe37T74u4FuCG3CYa-61" value="Travailler&lt;br&gt;&lt;br&gt;" style="rounded=1;whiteSpace=wrap;html=1;" vertex="1" parent="oa8Oe37T74u4FuCG3CYa-60">
          <mxGeometry width="106.03603603603604" height="60" as="geometry" />
        </mxCell>
        <mxCell id="oa8Oe37T74u4FuCG3CYa-68" value="" style="endArrow=none;html=1;rounded=0;entryX=0.009;entryY=0.81;entryDx=0;entryDy=0;entryPerimeter=0;" edge="1" parent="1">
          <mxGeometry width="50" height="50" relative="1" as="geometry">
            <mxPoint x="414" y="-596" as="sourcePoint" />
            <mxPoint x="586.3399999999999" y="-595.9000000000001" as="targetPoint" />
          </mxGeometry>
        </mxCell>
        <mxCell id="oa8Oe37T74u4FuCG3CYa-69" value="&amp;nbsp; &amp;nbsp; &amp;nbsp; &amp;nbsp; &amp;nbsp; &amp;nbsp; &amp;nbsp; &amp;nbsp; &amp;nbsp; &amp;nbsp; &amp;nbsp; &amp;nbsp; &amp;nbsp; &amp;nbsp; &amp;nbsp; &amp;nbsp;Client&lt;br&gt;&lt;br&gt;&lt;br&gt;&lt;br&gt;&lt;br&gt;Client_id&amp;nbsp; &amp;nbsp; &amp;nbsp; &amp;nbsp; &amp;nbsp; &amp;nbsp; &amp;nbsp; &amp;nbsp; &amp;nbsp; &amp;nbsp; &amp;nbsp; Séquentiel&lt;br&gt;Compte_id&lt;br&gt;Nom_client&amp;nbsp; &amp;nbsp; &amp;nbsp; &amp;nbsp; &amp;nbsp; &amp;nbsp; &amp;nbsp; &amp;nbsp; &amp;nbsp; Texte(50)&lt;br&gt;Type_client&amp;nbsp; &amp;nbsp; &amp;nbsp; &amp;nbsp; &amp;nbsp; &amp;nbsp; &amp;nbsp; &amp;nbsp; &amp;nbsp; Texte (50)&lt;br&gt;Situation_familiale&amp;nbsp; &amp;nbsp; &amp;nbsp; &amp;nbsp;Texte (50)&lt;br&gt;Adresse_client&amp;nbsp; &amp;nbsp; &amp;nbsp; &amp;nbsp; &amp;nbsp; &amp;nbsp; &amp;nbsp;Texte(50)&lt;br&gt;Code_postal&amp;nbsp; &amp;nbsp; &amp;nbsp; &amp;nbsp; &amp;nbsp; &amp;nbsp; &amp;nbsp; &amp;nbsp; &amp;nbsp;Numérique(5,5)&lt;br&gt;Ville&lt;span style=&quot;white-space: pre;&quot;&gt;&#x9;&lt;/span&gt;&lt;span style=&quot;white-space: pre;&quot;&gt;&#x9;&lt;/span&gt;&lt;span style=&quot;white-space: pre;&quot;&gt;&#x9;&lt;/span&gt;&lt;span style=&quot;white-space: pre;&quot;&gt;&#x9;&lt;/span&gt;&amp;nbsp; &amp;nbsp; &amp;nbsp;Texte(20)&lt;br&gt;Tél&amp;nbsp; &amp;nbsp; &amp;nbsp; &amp;nbsp; &amp;nbsp; &amp;nbsp; &amp;nbsp; &amp;nbsp; &amp;nbsp; &amp;nbsp; &amp;nbsp; &amp;nbsp; &amp;nbsp; &amp;nbsp; &amp;nbsp; &amp;nbsp; Texte&lt;br&gt;" style="rounded=0;whiteSpace=wrap;html=1;align=left;" vertex="1" parent="1">
          <mxGeometry x="583" y="-378" width="260" height="237" as="geometry" />
        </mxCell>
        <mxCell id="oa8Oe37T74u4FuCG3CYa-71" value="1,n" style="text;html=1;align=center;verticalAlign=middle;resizable=0;points=[];autosize=1;strokeColor=none;fillColor=none;" vertex="1" parent="1">
          <mxGeometry x="700" y="-498" width="40" height="30" as="geometry" />
        </mxCell>
        <mxCell id="oa8Oe37T74u4FuCG3CYa-73" value="&lt;br&gt;Assister&lt;br&gt;&lt;br&gt;" style="rounded=1;whiteSpace=wrap;html=1;" vertex="1" parent="1">
          <mxGeometry x="650" y="-468" width="106.03603603603604" height="60" as="geometry" />
        </mxCell>
        <mxCell id="oa8Oe37T74u4FuCG3CYa-77" value="" style="endArrow=none;html=1;rounded=0;" edge="1" parent="1" target="oa8Oe37T74u4FuCG3CYa-73">
          <mxGeometry width="50" height="50" relative="1" as="geometry">
            <mxPoint x="703" y="-368" as="sourcePoint" />
            <mxPoint x="720" y="-428" as="targetPoint" />
          </mxGeometry>
        </mxCell>
        <mxCell id="oa8Oe37T74u4FuCG3CYa-78" value="" style="endArrow=none;html=1;rounded=0;" edge="1" parent="1">
          <mxGeometry width="50" height="50" relative="1" as="geometry">
            <mxPoint x="703" y="-468" as="sourcePoint" />
            <mxPoint x="703" y="-498" as="targetPoint" />
          </mxGeometry>
        </mxCell>
        <mxCell id="oa8Oe37T74u4FuCG3CYa-79" value="1,1" style="text;html=1;align=center;verticalAlign=middle;resizable=0;points=[];autosize=1;strokeColor=none;fillColor=none;" vertex="1" parent="1">
          <mxGeometry x="702" y="-408" width="40" height="30" as="geometry" />
        </mxCell>
        <mxCell id="oa8Oe37T74u4FuCG3CYa-80" value="" style="endArrow=none;html=1;rounded=0;exitX=0;exitY=0.25;exitDx=0;exitDy=0;" edge="1" parent="1">
          <mxGeometry width="50" height="50" relative="1" as="geometry">
            <mxPoint x="581.2" y="-322" as="sourcePoint" />
            <mxPoint x="842.9999877929688" y="-321" as="targetPoint" />
          </mxGeometry>
        </mxCell>
        <mxCell id="oa8Oe37T74u4FuCG3CYa-83" value="" style="endArrow=none;html=1;rounded=0;" edge="1" parent="1">
          <mxGeometry width="50" height="50" relative="1" as="geometry">
            <mxPoint x="651" y="-428" as="sourcePoint" />
            <mxPoint x="760" y="-428" as="targetPoint" />
          </mxGeometry>
        </mxCell>
        <mxCell id="oa8Oe37T74u4FuCG3CYa-84" value="Posseder" style="rounded=1;whiteSpace=wrap;html=1;" vertex="1" parent="1">
          <mxGeometry x="430" y="-268" width="106.03603603603604" height="60" as="geometry" />
        </mxCell>
        <mxCell id="oa8Oe37T74u4FuCG3CYa-86" value="" style="endArrow=none;html=1;rounded=0;" edge="1" parent="1">
          <mxGeometry width="50" height="50" relative="1" as="geometry">
            <mxPoint x="389" y="-230" as="sourcePoint" />
            <mxPoint x="579" y="-230" as="targetPoint" />
          </mxGeometry>
        </mxCell>
        <mxCell id="oa8Oe37T74u4FuCG3CYa-88" value="1,1" style="text;html=1;align=center;verticalAlign=middle;resizable=0;points=[];autosize=1;strokeColor=none;fillColor=none;" vertex="1" parent="1">
          <mxGeometry x="384.8" y="-261" width="40" height="30" as="geometry" />
        </mxCell>
        <mxCell id="oa8Oe37T74u4FuCG3CYa-89" value="0,n" style="text;html=1;align=center;verticalAlign=middle;resizable=0;points=[];autosize=1;strokeColor=none;fillColor=none;" vertex="1" parent="1">
          <mxGeometry x="538.8" y="-261" width="40" height="30" as="geometry" />
        </mxCell>
        <mxCell id="oa8Oe37T74u4FuCG3CYa-91" value="" style="group" vertex="1" connectable="0" parent="1">
          <mxGeometry x="299.6" y="-958" width="264.79998779296875" height="210" as="geometry" />
        </mxCell>
        <mxCell id="oa8Oe37T74u4FuCG3CYa-92" value="&amp;nbsp; &amp;nbsp; &amp;nbsp; &amp;nbsp; &amp;nbsp; &amp;nbsp; &amp;nbsp; &amp;nbsp; &amp;nbsp; &amp;nbsp; &amp;nbsp; &amp;nbsp; &amp;nbsp; &amp;nbsp; Banque&lt;br&gt;&lt;br&gt;Banque_id&amp;nbsp; &amp;nbsp; &amp;nbsp; &amp;nbsp; &amp;nbsp; &amp;nbsp; &amp;nbsp; &amp;nbsp;&lt;br&gt;Banque_nom&amp;nbsp; &amp;nbsp; &amp;nbsp; &amp;nbsp; &amp;nbsp; &amp;nbsp;&lt;br&gt;&lt;br&gt;&lt;br&gt;&lt;br&gt;&lt;br&gt;" style="rounded=0;whiteSpace=wrap;html=1;align=left;" vertex="1" parent="oa8Oe37T74u4FuCG3CYa-91">
          <mxGeometry x="3" width="260" height="210" as="geometry" />
        </mxCell>
        <mxCell id="oa8Oe37T74u4FuCG3CYa-93" value="" style="endArrow=none;html=1;rounded=0;exitX=0;exitY=0.25;exitDx=0;exitDy=0;" edge="1" parent="oa8Oe37T74u4FuCG3CYa-91">
          <mxGeometry width="50" height="50" relative="1" as="geometry">
            <mxPoint x="2.9999999999998863" y="67.5" as="sourcePoint" />
            <mxPoint x="264.79998779296875" y="69" as="targetPoint" />
          </mxGeometry>
        </mxCell>
        <mxCell id="oa8Oe37T74u4FuCG3CYa-96" value="posséder" style="rounded=1;whiteSpace=wrap;html=1;" vertex="1" parent="1">
          <mxGeometry x="116" y="-883" width="120" height="60" as="geometry" />
        </mxCell>
        <mxCell id="oa8Oe37T74u4FuCG3CYa-100" value="" style="endArrow=none;html=1;rounded=0;" edge="1" parent="1">
          <mxGeometry width="50" height="50" relative="1" as="geometry">
            <mxPoint x="240" y="-858" as="sourcePoint" />
            <mxPoint x="300" y="-858" as="targetPoint" />
          </mxGeometry>
        </mxCell>
        <mxCell id="oa8Oe37T74u4FuCG3CYa-101" value="1,n" style="text;html=1;align=center;verticalAlign=middle;resizable=0;points=[];autosize=1;strokeColor=none;fillColor=none;" vertex="1" parent="1">
          <mxGeometry x="250" y="-900" width="40" height="30" as="geometry" />
        </mxCell>
        <mxCell id="oa8Oe37T74u4FuCG3CYa-103" value="" style="endArrow=none;html=1;rounded=0;" edge="1" parent="1">
          <mxGeometry width="50" height="50" relative="1" as="geometry">
            <mxPoint x="182" y="-708" as="sourcePoint" />
            <mxPoint x="182" y="-818" as="targetPoint" />
          </mxGeometry>
        </mxCell>
        <mxCell id="oa8Oe37T74u4FuCG3CYa-104" value="1,1" style="text;html=1;align=center;verticalAlign=middle;resizable=0;points=[];autosize=1;strokeColor=none;fillColor=none;" vertex="1" parent="1">
          <mxGeometry x="193" y="-799" width="40" height="30" as="geometry" />
        </mxCell>
        <mxCell id="oa8Oe37T74u4FuCG3CYa-107" value="Afficher" style="rounded=1;whiteSpace=wrap;html=1;" vertex="1" parent="1">
          <mxGeometry x="411" y="-456" width="120" height="60" as="geometry" />
        </mxCell>
        <mxCell id="oa8Oe37T74u4FuCG3CYa-108" value="" style="endArrow=none;html=1;rounded=0;" edge="1" parent="1">
          <mxGeometry width="50" height="50" relative="1" as="geometry">
            <mxPoint x="364" y="-348" as="sourcePoint" />
            <mxPoint x="414" y="-398" as="targetPoint" />
          </mxGeometry>
        </mxCell>
        <mxCell id="oa8Oe37T74u4FuCG3CYa-109" value="" style="endArrow=none;html=1;rounded=0;entryX=0;entryY=1;entryDx=0;entryDy=0;" edge="1" parent="1" target="oa8Oe37T74u4FuCG3CYa-18">
          <mxGeometry width="50" height="50" relative="1" as="geometry">
            <mxPoint x="531.04" y="-451" as="sourcePoint" />
            <mxPoint x="581.04" y="-501" as="targetPoint" />
          </mxGeometry>
        </mxCell>
        <mxCell id="oa8Oe37T74u4FuCG3CYa-110" value="1,n" style="text;html=1;align=center;verticalAlign=middle;resizable=0;points=[];autosize=1;strokeColor=none;fillColor=none;" vertex="1" parent="1">
          <mxGeometry x="517" y="-498" width="40" height="30" as="geometry" />
        </mxCell>
        <mxCell id="oa8Oe37T74u4FuCG3CYa-112" value="1,n" style="text;html=1;align=center;verticalAlign=middle;resizable=0;points=[];autosize=1;strokeColor=none;fillColor=none;" vertex="1" parent="1">
          <mxGeometry x="344.8" y="-396" width="40" height="30" as="geometry" />
        </mxCell>
        <mxCell id="oa8Oe37T74u4FuCG3CYa-117" value="" style="endArrow=none;html=1;rounded=0;entryX=1.02;entryY=0.643;entryDx=0;entryDy=0;entryPerimeter=0;" edge="1" parent="1" target="oa8Oe37T74u4FuCG3CYa-107">
          <mxGeometry width="50" height="50" relative="1" as="geometry">
            <mxPoint x="409" y="-418" as="sourcePoint" />
            <mxPoint x="518" y="-418" as="targetPoint" />
          </mxGeometry>
        </mxCell>
        <mxCell id="oa8Oe37T74u4FuCG3CYa-125" value="" style="endArrow=none;html=1;rounded=0;" edge="1" parent="1">
          <mxGeometry width="50" height="50" relative="1" as="geometry">
            <mxPoint x="121" y="-842" as="sourcePoint" />
            <mxPoint x="231" y="-841" as="targetPoint" />
          </mxGeometry>
        </mxCell>
        <mxCell id="oa8Oe37T74u4FuCG3CYa-127" value="2) MLD" style="rounded=0;whiteSpace=wrap;html=1;" vertex="1" parent="1">
          <mxGeometry y="372" width="216" height="60" as="geometry" />
        </mxCell>
        <mxCell id="oa8Oe37T74u4FuCG3CYa-129" value="" style="group" vertex="1" connectable="0" parent="1">
          <mxGeometry x="365.6" y="447" width="264.8" height="210" as="geometry" />
        </mxCell>
        <mxCell id="oa8Oe37T74u4FuCG3CYa-131" value="" style="endArrow=none;html=1;rounded=0;exitX=0;exitY=0.25;exitDx=0;exitDy=0;" edge="1" parent="oa8Oe37T74u4FuCG3CYa-129" source="oa8Oe37T74u4FuCG3CYa-130">
          <mxGeometry width="50" height="50" relative="1" as="geometry">
            <mxPoint x="65" y="54" as="sourcePoint" />
            <mxPoint x="264.79998779296875" y="54" as="targetPoint" />
          </mxGeometry>
        </mxCell>
        <mxCell id="oa8Oe37T74u4FuCG3CYa-130" value="&amp;nbsp; &amp;nbsp; &amp;nbsp; &amp;nbsp; &amp;nbsp; &amp;nbsp; &amp;nbsp; &amp;nbsp; &amp;nbsp; &amp;nbsp; &amp;nbsp; &amp;nbsp; &amp;nbsp; &amp;nbsp; Banque&lt;br&gt;&lt;br&gt;Banque_id&amp;nbsp; &amp;nbsp; &amp;nbsp; &amp;nbsp; &amp;nbsp; &amp;nbsp; &amp;nbsp; &amp;nbsp;&lt;br&gt;Banque_nom&amp;nbsp; &amp;nbsp; &amp;nbsp; &amp;nbsp; &amp;nbsp;&amp;nbsp;&lt;br&gt;&lt;br&gt;&lt;br&gt;" style="rounded=0;whiteSpace=wrap;html=1;align=left;" vertex="1" parent="oa8Oe37T74u4FuCG3CYa-129">
          <mxGeometry x="4.8" width="260" height="210" as="geometry" />
        </mxCell>
        <mxCell id="oa8Oe37T74u4FuCG3CYa-139" value="&amp;nbsp; &amp;nbsp; &amp;nbsp; &amp;nbsp; &amp;nbsp; &amp;nbsp; &amp;nbsp; &amp;nbsp; &amp;nbsp; &amp;nbsp; &amp;nbsp; &amp;nbsp; &amp;nbsp; &amp;nbsp; Agence&lt;br&gt;&lt;br&gt;Agence_id&amp;nbsp; &amp;nbsp; &amp;nbsp; &amp;nbsp; &amp;nbsp; &amp;nbsp; &amp;nbsp; &amp;nbsp;Séquentiel(8)&lt;br&gt;Agence_nom&amp;nbsp; &amp;nbsp; &amp;nbsp; &amp;nbsp; &amp;nbsp; &amp;nbsp;Texte(50)&lt;br&gt;Agence_adresse&amp;nbsp; &amp;nbsp; &amp;nbsp;Texte (50)&lt;br&gt;&lt;br&gt;&lt;br&gt;&lt;br&gt;&lt;br&gt;" style="rounded=0;whiteSpace=wrap;html=1;align=left;" vertex="1" parent="1">
          <mxGeometry x="36" y="707" width="260" height="210" as="geometry" />
        </mxCell>
        <mxCell id="oa8Oe37T74u4FuCG3CYa-143" value="" style="endArrow=none;html=1;rounded=0;entryX=1;entryY=0.25;entryDx=0;entryDy=0;exitX=0;exitY=0.25;exitDx=0;exitDy=0;" edge="1" parent="1">
          <mxGeometry width="50" height="50" relative="1" as="geometry">
            <mxPoint x="36" y="762.5" as="sourcePoint" />
            <mxPoint x="296" y="762.5" as="targetPoint" />
          </mxGeometry>
        </mxCell>
        <mxCell id="oa8Oe37T74u4FuCG3CYa-6" value="&amp;nbsp; &amp;nbsp; &amp;nbsp; &amp;nbsp; &amp;nbsp; &amp;nbsp; &amp;nbsp; &amp;nbsp; &amp;nbsp; &amp;nbsp; &amp;nbsp; &amp;nbsp; &amp;nbsp; &amp;nbsp; Agence&lt;br&gt;&lt;br&gt;Agence_id&amp;nbsp; &amp;nbsp; &amp;nbsp; &amp;nbsp; &amp;nbsp; &amp;nbsp; &amp;nbsp; &amp;nbsp;&lt;br&gt;Agence_nom&amp;nbsp; &amp;nbsp; &amp;nbsp; &amp;nbsp; &amp;nbsp; &amp;nbsp;&lt;br&gt;Agence_adresse&amp;nbsp; &amp;nbsp; &amp;nbsp;&lt;br&gt;&lt;br&gt;&lt;br&gt;&lt;br&gt;" style="rounded=0;whiteSpace=wrap;html=1;align=left;" vertex="1" parent="1">
          <mxGeometry x="154" y="-698" width="260" height="210" as="geometry" />
        </mxCell>
        <mxCell id="oa8Oe37T74u4FuCG3CYa-10" value="" style="endArrow=none;html=1;rounded=0;exitX=0;exitY=0.25;exitDx=0;exitDy=0;" edge="1" parent="1">
          <mxGeometry width="50" height="50" relative="1" as="geometry">
            <mxPoint x="154" y="-633.5" as="sourcePoint" />
            <mxPoint x="415.79998779296875" y="-632" as="targetPoint" />
          </mxGeometry>
        </mxCell>
        <mxCell id="oa8Oe37T74u4FuCG3CYa-149" value="1,1" style="text;html=1;align=center;verticalAlign=middle;resizable=0;points=[];autosize=1;strokeColor=none;fillColor=none;" vertex="1" parent="1">
          <mxGeometry x="158" y="667" width="40" height="30" as="geometry" />
        </mxCell>
        <mxCell id="oa8Oe37T74u4FuCG3CYa-150" value="1,n" style="text;html=1;align=center;verticalAlign=middle;resizable=0;points=[];autosize=1;strokeColor=none;fillColor=none;" vertex="1" parent="1">
          <mxGeometry x="325.6" y="567" width="40" height="30" as="geometry" />
        </mxCell>
        <mxCell id="oa8Oe37T74u4FuCG3CYa-151" value="&amp;nbsp; &amp;nbsp; &amp;nbsp; &amp;nbsp; &amp;nbsp; &amp;nbsp; &amp;nbsp; &amp;nbsp; &amp;nbsp; &amp;nbsp; &amp;nbsp; &amp;nbsp; &amp;nbsp; &amp;nbsp; Conseiller&lt;br&gt;&lt;br&gt;Conseiller_id&amp;nbsp; &amp;nbsp; &amp;nbsp; &amp;nbsp; &amp;nbsp; &amp;nbsp; &amp;nbsp; &amp;nbsp;Séquentiel&lt;br&gt;Conseiller_nom&amp;nbsp; &amp;nbsp; &amp;nbsp; &amp;nbsp; &amp;nbsp; &amp;nbsp;Texte(50)&lt;br&gt;&lt;br&gt;&lt;br&gt;&lt;br&gt;" style="rounded=0;whiteSpace=wrap;html=1;align=left;" vertex="1" parent="1">
          <mxGeometry x="690" y="722" width="260" height="210" as="geometry" />
        </mxCell>
        <mxCell id="oa8Oe37T74u4FuCG3CYa-153" value="1,n" style="text;html=1;align=center;verticalAlign=middle;resizable=0;points=[];autosize=1;strokeColor=none;fillColor=none;" vertex="1" parent="1">
          <mxGeometry x="304.8" y="777" width="40" height="30" as="geometry" />
        </mxCell>
        <mxCell id="oa8Oe37T74u4FuCG3CYa-154" value="1,1" style="text;html=1;align=center;verticalAlign=middle;resizable=0;points=[];autosize=1;strokeColor=none;fillColor=none;" vertex="1" parent="1">
          <mxGeometry x="620" y="785" width="40" height="30" as="geometry" />
        </mxCell>
        <mxCell id="oa8Oe37T74u4FuCG3CYa-173" value="" style="edgeStyle=orthogonalEdgeStyle;rounded=0;orthogonalLoop=1;jettySize=auto;html=1;" edge="1" parent="1" source="oa8Oe37T74u4FuCG3CYa-155" target="oa8Oe37T74u4FuCG3CYa-171">
          <mxGeometry relative="1" as="geometry" />
        </mxCell>
        <mxCell id="oa8Oe37T74u4FuCG3CYa-155" value="&amp;nbsp; &amp;nbsp; &amp;nbsp; &amp;nbsp; &amp;nbsp; &amp;nbsp; &amp;nbsp; &amp;nbsp; &amp;nbsp; &amp;nbsp; &amp;nbsp; &amp;nbsp; &amp;nbsp; &amp;nbsp; &amp;nbsp; &amp;nbsp;Compte&lt;br&gt;&lt;br&gt;Compte_id&amp;nbsp; &amp;nbsp; &amp;nbsp; &amp;nbsp; &amp;nbsp; &amp;nbsp; &amp;nbsp; &amp;nbsp;Séquentiel(8)&lt;br&gt;Client_id&lt;br&gt;date_ouvert&amp;nbsp; &amp;nbsp; &amp;nbsp; &amp;nbsp; &amp;nbsp; &amp;nbsp; &amp;nbsp; Date (50)&lt;br&gt;Type_compte&amp;nbsp; &amp;nbsp; &amp;nbsp; &amp;nbsp; &amp;nbsp; &amp;nbsp;Texte(50)&lt;br&gt;&lt;br&gt;" style="rounded=0;whiteSpace=wrap;html=1;align=left;" vertex="1" parent="1">
          <mxGeometry x="30" y="1007" width="260" height="210" as="geometry" />
        </mxCell>
        <mxCell id="oa8Oe37T74u4FuCG3CYa-156" value="" style="endArrow=classic;html=1;rounded=0;entryX=0.5;entryY=0;entryDx=0;entryDy=0;exitX=0.475;exitY=1.02;exitDx=0;exitDy=0;exitPerimeter=0;" edge="1" parent="1" source="oa8Oe37T74u4FuCG3CYa-139" target="oa8Oe37T74u4FuCG3CYa-155">
          <mxGeometry width="50" height="50" relative="1" as="geometry">
            <mxPoint x="157" y="919" as="sourcePoint" />
            <mxPoint x="154.48000000000002" y="1006.8000000000002" as="targetPoint" />
          </mxGeometry>
        </mxCell>
        <mxCell id="oa8Oe37T74u4FuCG3CYa-157" value="" style="endArrow=none;html=1;rounded=0;entryX=1;entryY=0.25;entryDx=0;entryDy=0;exitX=0;exitY=0.25;exitDx=0;exitDy=0;" edge="1" parent="1">
          <mxGeometry width="50" height="50" relative="1" as="geometry">
            <mxPoint x="30" y="1087" as="sourcePoint" />
            <mxPoint x="290" y="1087" as="targetPoint" />
          </mxGeometry>
        </mxCell>
        <mxCell id="oa8Oe37T74u4FuCG3CYa-158" value="&amp;nbsp; &amp;nbsp; &amp;nbsp; &amp;nbsp; &amp;nbsp; &amp;nbsp; &amp;nbsp; &amp;nbsp; &amp;nbsp; &amp;nbsp; &amp;nbsp; &amp;nbsp; &amp;nbsp; &amp;nbsp; &amp;nbsp; &amp;nbsp;Client&lt;br&gt;&lt;br&gt;&lt;br&gt;&lt;br&gt;&lt;br&gt;Client_id&amp;nbsp; &amp;nbsp; &amp;nbsp; &amp;nbsp; &amp;nbsp; &amp;nbsp; &amp;nbsp; &amp;nbsp; &amp;nbsp; &amp;nbsp; &amp;nbsp; Séquentiel&lt;br&gt;Compte_id&lt;br&gt;Nom_client&amp;nbsp; &amp;nbsp; &amp;nbsp; &amp;nbsp; &amp;nbsp; &amp;nbsp; &amp;nbsp; &amp;nbsp; &amp;nbsp; Texte(50)&lt;br&gt;Type_client&amp;nbsp; &amp;nbsp; &amp;nbsp; &amp;nbsp; &amp;nbsp; &amp;nbsp; &amp;nbsp; &amp;nbsp; &amp;nbsp; Texte (50)&lt;br&gt;Situation_familiale&amp;nbsp; &amp;nbsp; &amp;nbsp; &amp;nbsp;Texte (50)&lt;br&gt;Adresse_client&amp;nbsp; &amp;nbsp; &amp;nbsp; &amp;nbsp; &amp;nbsp; &amp;nbsp; &amp;nbsp;Texte(50)&lt;br&gt;Code_postal&amp;nbsp; &amp;nbsp; &amp;nbsp; &amp;nbsp; &amp;nbsp; &amp;nbsp; &amp;nbsp; &amp;nbsp; &amp;nbsp;Numérique(5,5)&lt;br&gt;Ville&lt;span style=&quot;white-space: pre;&quot;&gt;&#x9;&lt;/span&gt;&lt;span style=&quot;white-space: pre;&quot;&gt;&#x9;&lt;/span&gt;&lt;span style=&quot;white-space: pre;&quot;&gt;&#x9;&lt;/span&gt;&lt;span style=&quot;white-space: pre;&quot;&gt;&#x9;&lt;/span&gt;&amp;nbsp; &amp;nbsp; &amp;nbsp;Texte(20)&lt;br&gt;Tél&amp;nbsp; &amp;nbsp; &amp;nbsp; &amp;nbsp; &amp;nbsp; &amp;nbsp; &amp;nbsp; &amp;nbsp; &amp;nbsp; &amp;nbsp; &amp;nbsp; &amp;nbsp; &amp;nbsp; &amp;nbsp; &amp;nbsp; &amp;nbsp; Texte&lt;br&gt;" style="rounded=0;whiteSpace=wrap;html=1;align=left;" vertex="1" parent="1">
          <mxGeometry x="698" y="1032" width="260" height="237" as="geometry" />
        </mxCell>
        <mxCell id="oa8Oe37T74u4FuCG3CYa-159" value="" style="endArrow=none;html=1;rounded=0;entryX=1;entryY=0.25;entryDx=0;entryDy=0;exitX=0;exitY=0.25;exitDx=0;exitDy=0;" edge="1" parent="1">
          <mxGeometry width="50" height="50" relative="1" as="geometry">
            <mxPoint x="696" y="1072" as="sourcePoint" />
            <mxPoint x="956" y="1072" as="targetPoint" />
          </mxGeometry>
        </mxCell>
        <mxCell id="oa8Oe37T74u4FuCG3CYa-160" value="" style="endArrow=classic;html=1;rounded=0;exitX=0.695;exitY=1.033;exitDx=0;exitDy=0;exitPerimeter=0;" edge="1" parent="1">
          <mxGeometry width="50" height="50" relative="1" as="geometry">
            <mxPoint x="826.6999999999998" y="923.9299999999998" as="sourcePoint" />
            <mxPoint x="827" y="1015" as="targetPoint" />
          </mxGeometry>
        </mxCell>
        <mxCell id="oa8Oe37T74u4FuCG3CYa-161" value="" style="endArrow=classic;html=1;rounded=0;exitX=0;exitY=0.554;exitDx=0;exitDy=0;exitPerimeter=0;entryX=1.031;entryY=0.658;entryDx=0;entryDy=0;entryPerimeter=0;" edge="1" parent="1">
          <mxGeometry width="50" height="50" relative="1" as="geometry">
            <mxPoint x="696" y="1148.2979999999998" as="sourcePoint" />
            <mxPoint x="296.05999999999995" y="1145.1799999999998" as="targetPoint" />
          </mxGeometry>
        </mxCell>
        <mxCell id="oa8Oe37T74u4FuCG3CYa-163" value="" style="endArrow=classic;html=1;rounded=0;" edge="1" parent="1">
          <mxGeometry width="50" height="50" relative="1" as="geometry">
            <mxPoint x="306" y="826" as="sourcePoint" />
            <mxPoint x="686" y="827" as="targetPoint" />
          </mxGeometry>
        </mxCell>
        <mxCell id="oa8Oe37T74u4FuCG3CYa-164" value="1,n" style="text;html=1;align=center;verticalAlign=middle;resizable=0;points=[];autosize=1;strokeColor=none;fillColor=none;" vertex="1" parent="1">
          <mxGeometry x="116" y="920" width="40" height="30" as="geometry" />
        </mxCell>
        <mxCell id="oa8Oe37T74u4FuCG3CYa-165" value="1,1" style="text;html=1;align=center;verticalAlign=middle;resizable=0;points=[];autosize=1;strokeColor=none;fillColor=none;" vertex="1" parent="1">
          <mxGeometry x="116" y="973" width="40" height="30" as="geometry" />
        </mxCell>
        <mxCell id="oa8Oe37T74u4FuCG3CYa-166" value="1,n" style="text;html=1;align=center;verticalAlign=middle;resizable=0;points=[];autosize=1;strokeColor=none;fillColor=none;" vertex="1" parent="1">
          <mxGeometry x="780" y="917" width="40" height="30" as="geometry" />
        </mxCell>
        <mxCell id="oa8Oe37T74u4FuCG3CYa-167" value="1,1" style="text;html=1;align=center;verticalAlign=middle;resizable=0;points=[];autosize=1;strokeColor=none;fillColor=none;" vertex="1" parent="1">
          <mxGeometry x="780" y="990" width="40" height="30" as="geometry" />
        </mxCell>
        <mxCell id="oa8Oe37T74u4FuCG3CYa-168" value="0,n" style="text;html=1;align=center;verticalAlign=middle;resizable=0;points=[];autosize=1;strokeColor=none;fillColor=none;" vertex="1" parent="1">
          <mxGeometry x="656" y="1114" width="40" height="30" as="geometry" />
        </mxCell>
        <mxCell id="oa8Oe37T74u4FuCG3CYa-169" value="1,1" style="text;html=1;align=center;verticalAlign=middle;resizable=0;points=[];autosize=1;strokeColor=none;fillColor=none;" vertex="1" parent="1">
          <mxGeometry x="307" y="1109" width="40" height="30" as="geometry" />
        </mxCell>
        <mxCell id="oa8Oe37T74u4FuCG3CYa-170" value="1,1" style="text;html=1;align=center;verticalAlign=middle;resizable=0;points=[];autosize=1;strokeColor=none;fillColor=none;" vertex="1" parent="1">
          <mxGeometry x="148.2" y="1265" width="40" height="30" as="geometry" />
        </mxCell>
        <mxCell id="oa8Oe37T74u4FuCG3CYa-171" value="&amp;nbsp; &amp;nbsp; &amp;nbsp; &amp;nbsp; &amp;nbsp; &amp;nbsp; &amp;nbsp; &amp;nbsp; &amp;nbsp; &amp;nbsp; &amp;nbsp; &amp;nbsp; &amp;nbsp; operation&lt;br&gt;&lt;br&gt;&lt;br&gt;Operation_id&amp;nbsp; &amp;nbsp; &amp;nbsp; &amp;nbsp; &amp;nbsp; &amp;nbsp; &amp;nbsp;Séquentiel(8)&lt;br&gt;Operation_libelle&amp;nbsp; &amp;nbsp; &amp;nbsp; &amp;nbsp;Texte(50)&lt;br&gt;Operation_date&amp;nbsp; &amp;nbsp; &amp;nbsp; &amp;nbsp; &amp;nbsp; Date (50)&lt;br&gt;montant_debit&amp;nbsp; &amp;nbsp; &amp;nbsp; &amp;nbsp; &amp;nbsp; &amp;nbsp; Monnaie&lt;br&gt;montant_credit&amp;nbsp; &amp;nbsp; &amp;nbsp; &amp;nbsp; &amp;nbsp; &amp;nbsp;Monnaie&lt;br&gt;&lt;br&gt;" style="rounded=0;whiteSpace=wrap;html=1;align=left;" vertex="1" parent="1">
          <mxGeometry x="24" y="1295" width="260" height="135" as="geometry" />
        </mxCell>
        <mxCell id="oa8Oe37T74u4FuCG3CYa-172" value="" style="endArrow=none;html=1;rounded=0;exitX=0;exitY=0.25;exitDx=0;exitDy=0;" edge="1" parent="1">
          <mxGeometry width="50" height="50" relative="1" as="geometry">
            <mxPoint x="28.200000000000003" y="1328" as="sourcePoint" />
            <mxPoint x="289.99998779296874" y="1329" as="targetPoint" />
          </mxGeometry>
        </mxCell>
        <mxCell id="oa8Oe37T74u4FuCG3CYa-174" value="0,n" style="text;html=1;align=center;verticalAlign=middle;resizable=0;points=[];autosize=1;strokeColor=none;fillColor=none;" vertex="1" parent="1">
          <mxGeometry x="161.2" y="1218" width="40" height="30" as="geometry" />
        </mxCell>
        <mxCell id="oa8Oe37T74u4FuCG3CYa-175" value="" style="edgeStyle=orthogonalEdgeStyle;rounded=0;orthogonalLoop=1;jettySize=auto;html=1;" edge="1" parent="1" source="oa8Oe37T74u4FuCG3CYa-130">
          <mxGeometry relative="1" as="geometry">
            <mxPoint x="150" y="705" as="targetPoint" />
          </mxGeometry>
        </mxCell>
        <mxCell id="oa8Oe37T74u4FuCG3CYa-181" value="1,n" style="text;html=1;align=center;verticalAlign=middle;resizable=0;points=[];autosize=1;strokeColor=none;fillColor=none;" vertex="1" parent="1">
          <mxGeometry x="296" y="1017" width="40" height="30" as="geometry" />
        </mxCell>
        <mxCell id="oa8Oe37T74u4FuCG3CYa-182" value="1,n" style="text;html=1;align=center;verticalAlign=middle;resizable=0;points=[];autosize=1;strokeColor=none;fillColor=none;" vertex="1" parent="1">
          <mxGeometry x="649" y="850" width="40" height="30" as="geometry" />
        </mxCell>
        <mxCell id="oa8Oe37T74u4FuCG3CYa-222" value="" style="group" vertex="1" connectable="0" parent="1">
          <mxGeometry x="395.6" y="1544" width="264.8" height="118" as="geometry" />
        </mxCell>
        <mxCell id="oa8Oe37T74u4FuCG3CYa-223" value="" style="endArrow=none;html=1;rounded=0;exitX=0;exitY=0.25;exitDx=0;exitDy=0;" edge="1" parent="oa8Oe37T74u4FuCG3CYa-222" source="oa8Oe37T74u4FuCG3CYa-224">
          <mxGeometry width="50" height="50" relative="1" as="geometry">
            <mxPoint x="65" y="30.342857142857138" as="sourcePoint" />
            <mxPoint x="264.79998779296875" y="30.342857142857138" as="targetPoint" />
          </mxGeometry>
        </mxCell>
        <mxCell id="oa8Oe37T74u4FuCG3CYa-224" value="&amp;nbsp; &amp;nbsp; &amp;nbsp; &amp;nbsp; &amp;nbsp; &amp;nbsp; &amp;nbsp; &amp;nbsp; &amp;nbsp; &amp;nbsp; &amp;nbsp; &amp;nbsp; &amp;nbsp; &amp;nbsp; Banque&lt;br&gt;&lt;br&gt;&lt;br&gt;&lt;br&gt;&lt;br&gt;&lt;u&gt;Banque_id&lt;/u&gt;&amp;nbsp; &amp;nbsp; &amp;nbsp; &amp;nbsp; &amp;nbsp; &amp;nbsp; &amp;nbsp; &amp;nbsp;INT&amp;nbsp;&lt;br&gt;Banque_nom&amp;nbsp; &amp;nbsp; &amp;nbsp; &amp;nbsp; &amp;nbsp; &amp;nbsp;VARCHAR(255)" style="rounded=0;whiteSpace=wrap;html=1;align=left;" vertex="1" parent="oa8Oe37T74u4FuCG3CYa-222">
          <mxGeometry x="4.8" width="260" height="118" as="geometry" />
        </mxCell>
        <mxCell id="oa8Oe37T74u4FuCG3CYa-225" value="&amp;nbsp; &amp;nbsp; &amp;nbsp; &amp;nbsp; &amp;nbsp; &amp;nbsp; &amp;nbsp; &amp;nbsp; &amp;nbsp; &amp;nbsp; &amp;nbsp; &amp;nbsp; &amp;nbsp; &amp;nbsp; Agence&lt;br&gt;&lt;br&gt;&lt;u&gt;Agence_id&amp;nbsp;&lt;/u&gt;&amp;nbsp; &amp;nbsp; &amp;nbsp; &amp;nbsp; &amp;nbsp; &amp;nbsp; &amp;nbsp; INT&lt;br&gt;Agence_nom&amp;nbsp; &amp;nbsp; &amp;nbsp; &amp;nbsp; &amp;nbsp; &amp;nbsp;VARCHAR(255)&lt;br&gt;Agence_adresse&amp;nbsp; &amp;nbsp; &amp;nbsp;VARCHAR(255)" style="rounded=0;whiteSpace=wrap;html=1;align=left;" vertex="1" parent="1">
          <mxGeometry x="46" y="1684" width="260" height="136" as="geometry" />
        </mxCell>
        <mxCell id="oa8Oe37T74u4FuCG3CYa-226" value="" style="endArrow=none;html=1;rounded=0;entryX=1;entryY=0.25;entryDx=0;entryDy=0;exitX=0;exitY=0.25;exitDx=0;exitDy=0;" edge="1" parent="1">
          <mxGeometry width="50" height="50" relative="1" as="geometry">
            <mxPoint x="46" y="1733.5" as="sourcePoint" />
            <mxPoint x="306" y="1733.5" as="targetPoint" />
          </mxGeometry>
        </mxCell>
        <mxCell id="oa8Oe37T74u4FuCG3CYa-227" value="1,1" style="text;html=1;align=center;verticalAlign=middle;resizable=0;points=[];autosize=1;strokeColor=none;fillColor=none;" vertex="1" parent="1">
          <mxGeometry x="148" y="1651" width="40" height="30" as="geometry" />
        </mxCell>
        <mxCell id="oa8Oe37T74u4FuCG3CYa-228" value="1,n" style="text;html=1;align=center;verticalAlign=middle;resizable=0;points=[];autosize=1;strokeColor=none;fillColor=none;" vertex="1" parent="1">
          <mxGeometry x="360.6" y="1574" width="40" height="30" as="geometry" />
        </mxCell>
        <mxCell id="oa8Oe37T74u4FuCG3CYa-261" value="" style="edgeStyle=orthogonalEdgeStyle;rounded=0;orthogonalLoop=1;jettySize=auto;html=1;" edge="1" parent="1" source="oa8Oe37T74u4FuCG3CYa-230">
          <mxGeometry relative="1" as="geometry">
            <mxPoint x="840" y="1934" as="targetPoint" />
          </mxGeometry>
        </mxCell>
        <mxCell id="oa8Oe37T74u4FuCG3CYa-230" value="&amp;nbsp; &amp;nbsp; &amp;nbsp; &amp;nbsp; &amp;nbsp; &amp;nbsp; &amp;nbsp; &amp;nbsp; &amp;nbsp; &amp;nbsp; &amp;nbsp; &amp;nbsp; &amp;nbsp; &amp;nbsp; Conseiller&lt;br&gt;&lt;br&gt;&lt;u&gt;Conseiller_id&lt;/u&gt;&amp;nbsp; &amp;nbsp; &amp;nbsp; &amp;nbsp; &amp;nbsp; &amp;nbsp; &amp;nbsp; &amp;nbsp;INT&lt;br&gt;Conseiller_nom&amp;nbsp; &amp;nbsp; &amp;nbsp; &amp;nbsp; &amp;nbsp; &amp;nbsp;VARCHAR(255)&lt;br&gt;" style="rounded=0;whiteSpace=wrap;html=1;align=left;" vertex="1" parent="1">
          <mxGeometry x="700" y="1694" width="260" height="110" as="geometry" />
        </mxCell>
        <mxCell id="oa8Oe37T74u4FuCG3CYa-231" value="1,n" style="text;html=1;align=center;verticalAlign=middle;resizable=0;points=[];autosize=1;strokeColor=none;fillColor=none;" vertex="1" parent="1">
          <mxGeometry x="314.8" y="1680" width="40" height="30" as="geometry" />
        </mxCell>
        <mxCell id="oa8Oe37T74u4FuCG3CYa-232" value="1,1" style="text;html=1;align=center;verticalAlign=middle;resizable=0;points=[];autosize=1;strokeColor=none;fillColor=none;" vertex="1" parent="1">
          <mxGeometry x="630" y="1688" width="40" height="30" as="geometry" />
        </mxCell>
        <mxCell id="oa8Oe37T74u4FuCG3CYa-233" value="" style="edgeStyle=orthogonalEdgeStyle;rounded=0;orthogonalLoop=1;jettySize=auto;html=1;" edge="1" parent="1" source="oa8Oe37T74u4FuCG3CYa-234" target="oa8Oe37T74u4FuCG3CYa-249">
          <mxGeometry relative="1" as="geometry" />
        </mxCell>
        <mxCell id="oa8Oe37T74u4FuCG3CYa-234" value="&amp;nbsp; &amp;nbsp; &amp;nbsp; &amp;nbsp; &amp;nbsp; &amp;nbsp; &amp;nbsp; &amp;nbsp; &amp;nbsp; &amp;nbsp; &amp;nbsp; &amp;nbsp; &amp;nbsp; &amp;nbsp; &amp;nbsp; &amp;nbsp;Compte&lt;br&gt;&lt;br&gt;&lt;u&gt;Compte_id&lt;/u&gt;&amp;nbsp; &amp;nbsp; &amp;nbsp; &amp;nbsp; &amp;nbsp; &amp;nbsp; &amp;nbsp; &amp;nbsp;INT&lt;br&gt;#Client_id&amp;nbsp; &amp;nbsp; &amp;nbsp; &amp;nbsp; &amp;nbsp; &amp;nbsp; &amp;nbsp; &amp;nbsp; &amp;nbsp;INT&lt;br&gt;date_ouvert&amp;nbsp; &amp;nbsp; &amp;nbsp; &amp;nbsp; &amp;nbsp; &amp;nbsp; &amp;nbsp; Date&amp;nbsp;&lt;br&gt;Type_compte&amp;nbsp; &amp;nbsp; &amp;nbsp; &amp;nbsp; &amp;nbsp; &amp;nbsp;VARCHAR(255)" style="rounded=0;whiteSpace=wrap;html=1;align=left;" vertex="1" parent="1">
          <mxGeometry x="40" y="1910" width="260" height="164" as="geometry" />
        </mxCell>
        <mxCell id="oa8Oe37T74u4FuCG3CYa-235" value="" style="endArrow=classic;html=1;rounded=0;entryX=0.5;entryY=0;entryDx=0;entryDy=0;exitX=0.475;exitY=1.02;exitDx=0;exitDy=0;exitPerimeter=0;" edge="1" parent="1" source="oa8Oe37T74u4FuCG3CYa-225" target="oa8Oe37T74u4FuCG3CYa-234">
          <mxGeometry width="50" height="50" relative="1" as="geometry">
            <mxPoint x="167" y="1822" as="sourcePoint" />
            <mxPoint x="164.48000000000002" y="1909.8000000000002" as="targetPoint" />
          </mxGeometry>
        </mxCell>
        <mxCell id="oa8Oe37T74u4FuCG3CYa-236" value="" style="endArrow=none;html=1;rounded=0;entryX=1;entryY=0.25;entryDx=0;entryDy=0;exitX=0;exitY=0.25;exitDx=0;exitDy=0;" edge="1" parent="1">
          <mxGeometry width="50" height="50" relative="1" as="geometry">
            <mxPoint x="40" y="1963" as="sourcePoint" />
            <mxPoint x="300" y="1963" as="targetPoint" />
          </mxGeometry>
        </mxCell>
        <mxCell id="oa8Oe37T74u4FuCG3CYa-237" value="&amp;nbsp; &amp;nbsp; &amp;nbsp; &amp;nbsp; &amp;nbsp; &amp;nbsp; &amp;nbsp; &amp;nbsp; &amp;nbsp; &amp;nbsp; &amp;nbsp; &amp;nbsp; &amp;nbsp; &amp;nbsp; &amp;nbsp; &amp;nbsp;Client&lt;br&gt;&lt;br&gt;&lt;br&gt;&lt;br&gt;&lt;br&gt;&lt;u&gt;Client_id&lt;/u&gt;&amp;nbsp; &amp;nbsp; &amp;nbsp; &amp;nbsp; &amp;nbsp; &amp;nbsp; &amp;nbsp; &amp;nbsp; &amp;nbsp; &amp;nbsp; &amp;nbsp; INT&lt;br&gt;#Compte_id&amp;nbsp; &amp;nbsp; &amp;nbsp; &amp;nbsp; &amp;nbsp; &amp;nbsp; &amp;nbsp; &amp;nbsp; &amp;nbsp;INT&lt;br&gt;Nom_client&amp;nbsp; &amp;nbsp; &amp;nbsp; &amp;nbsp; &amp;nbsp; &amp;nbsp; &amp;nbsp; &amp;nbsp; &amp;nbsp; VAR HAR(255)&lt;br&gt;Type_client&amp;nbsp; &amp;nbsp; &amp;nbsp; &amp;nbsp; &amp;nbsp; &amp;nbsp; &amp;nbsp; &amp;nbsp; &amp;nbsp; VARCHAR(255)&lt;br&gt;Situation_familiale&amp;nbsp; &amp;nbsp; &amp;nbsp; &amp;nbsp;VARCHAR(255)&lt;br&gt;Adresse_client&amp;nbsp; &amp;nbsp; &amp;nbsp; &amp;nbsp; &amp;nbsp; &amp;nbsp; &amp;nbsp;VARCHAR(255)&lt;br&gt;Code_postal&amp;nbsp; &amp;nbsp; &amp;nbsp; &amp;nbsp; &amp;nbsp; &amp;nbsp; &amp;nbsp; &amp;nbsp; &amp;nbsp;Numérique(5)&lt;br&gt;Ville&lt;span style=&quot;&quot;&gt;&lt;span style=&quot;&quot;&gt;&amp;nbsp;&amp;nbsp;&amp;nbsp;&amp;nbsp;&lt;/span&gt;&lt;/span&gt;&lt;span style=&quot;&quot;&gt;&lt;span style=&quot;&quot;&gt;&amp;nbsp;&amp;nbsp;&amp;nbsp;&amp;nbsp;&lt;/span&gt;&lt;/span&gt;&lt;span style=&quot;&quot;&gt;&lt;span style=&quot;&quot;&gt;&amp;nbsp;&amp;nbsp;&amp;nbsp;&amp;nbsp;&lt;/span&gt;&lt;/span&gt;&lt;span style=&quot;&quot;&gt;&lt;span style=&quot;&quot;&gt;&amp;nbsp;&amp;nbsp;&amp;nbsp;&amp;nbsp;&lt;/span&gt;&lt;/span&gt;&amp;nbsp; &amp;nbsp; &amp;nbsp; &amp;nbsp; &amp;nbsp; &amp;nbsp; &amp;nbsp; VARCHAR(255)&lt;br&gt;Tél&amp;nbsp; &amp;nbsp; &amp;nbsp; &amp;nbsp; &amp;nbsp; &amp;nbsp; &amp;nbsp; &amp;nbsp; &amp;nbsp; &amp;nbsp; &amp;nbsp; &amp;nbsp; &amp;nbsp; &amp;nbsp; &amp;nbsp; &amp;nbsp; VARCHAR(255)" style="rounded=0;whiteSpace=wrap;html=1;align=left;" vertex="1" parent="1">
          <mxGeometry x="708" y="1935" width="260" height="215" as="geometry" />
        </mxCell>
        <mxCell id="oa8Oe37T74u4FuCG3CYa-238" value="" style="endArrow=none;html=1;rounded=0;entryX=1;entryY=0.25;entryDx=0;entryDy=0;exitX=0;exitY=0.25;exitDx=0;exitDy=0;" edge="1" parent="1">
          <mxGeometry width="50" height="50" relative="1" as="geometry">
            <mxPoint x="706" y="1960" as="sourcePoint" />
            <mxPoint x="966" y="1960" as="targetPoint" />
          </mxGeometry>
        </mxCell>
        <mxCell id="oa8Oe37T74u4FuCG3CYa-240" value="" style="endArrow=classic;html=1;rounded=0;exitX=0;exitY=0.554;exitDx=0;exitDy=0;exitPerimeter=0;entryX=1.031;entryY=0.658;entryDx=0;entryDy=0;entryPerimeter=0;" edge="1" parent="1">
          <mxGeometry width="50" height="50" relative="1" as="geometry">
            <mxPoint x="706" y="2051.298" as="sourcePoint" />
            <mxPoint x="306.05999999999995" y="2048.18" as="targetPoint" />
          </mxGeometry>
        </mxCell>
        <mxCell id="oa8Oe37T74u4FuCG3CYa-241" value="" style="endArrow=classic;html=1;rounded=0;" edge="1" parent="1">
          <mxGeometry width="50" height="50" relative="1" as="geometry">
            <mxPoint x="316" y="1729" as="sourcePoint" />
            <mxPoint x="696" y="1730" as="targetPoint" />
          </mxGeometry>
        </mxCell>
        <mxCell id="oa8Oe37T74u4FuCG3CYa-242" value="1,n" style="text;html=1;align=center;verticalAlign=middle;resizable=0;points=[];autosize=1;strokeColor=none;fillColor=none;" vertex="1" parent="1">
          <mxGeometry x="126" y="1823" width="40" height="30" as="geometry" />
        </mxCell>
        <mxCell id="oa8Oe37T74u4FuCG3CYa-243" value="1,1" style="text;html=1;align=center;verticalAlign=middle;resizable=0;points=[];autosize=1;strokeColor=none;fillColor=none;" vertex="1" parent="1">
          <mxGeometry x="126" y="1876" width="40" height="30" as="geometry" />
        </mxCell>
        <mxCell id="oa8Oe37T74u4FuCG3CYa-244" value="1,n" style="text;html=1;align=center;verticalAlign=middle;resizable=0;points=[];autosize=1;strokeColor=none;fillColor=none;" vertex="1" parent="1">
          <mxGeometry x="790" y="1820" width="40" height="30" as="geometry" />
        </mxCell>
        <mxCell id="oa8Oe37T74u4FuCG3CYa-245" value="1,1" style="text;html=1;align=center;verticalAlign=middle;resizable=0;points=[];autosize=1;strokeColor=none;fillColor=none;" vertex="1" parent="1">
          <mxGeometry x="790" y="1890" width="40" height="30" as="geometry" />
        </mxCell>
        <mxCell id="oa8Oe37T74u4FuCG3CYa-246" value="0,n" style="text;html=1;align=center;verticalAlign=middle;resizable=0;points=[];autosize=1;strokeColor=none;fillColor=none;" vertex="1" parent="1">
          <mxGeometry x="666" y="2017" width="40" height="30" as="geometry" />
        </mxCell>
        <mxCell id="oa8Oe37T74u4FuCG3CYa-247" value="1,1" style="text;html=1;align=center;verticalAlign=middle;resizable=0;points=[];autosize=1;strokeColor=none;fillColor=none;" vertex="1" parent="1">
          <mxGeometry x="317" y="2012" width="40" height="30" as="geometry" />
        </mxCell>
        <mxCell id="oa8Oe37T74u4FuCG3CYa-248" value="1,1" style="text;html=1;align=center;verticalAlign=middle;resizable=0;points=[];autosize=1;strokeColor=none;fillColor=none;" vertex="1" parent="1">
          <mxGeometry x="158.2" y="2168" width="40" height="30" as="geometry" />
        </mxCell>
        <mxCell id="oa8Oe37T74u4FuCG3CYa-249" value="&amp;nbsp; &amp;nbsp; &amp;nbsp; &amp;nbsp; &amp;nbsp; &amp;nbsp; &amp;nbsp; &amp;nbsp; &amp;nbsp; &amp;nbsp; &amp;nbsp; &amp;nbsp; &amp;nbsp; operation&lt;br&gt;&lt;br&gt;&lt;br&gt;Operation_id&amp;nbsp; &amp;nbsp; &amp;nbsp; &amp;nbsp; &amp;nbsp; &amp;nbsp; &amp;nbsp;INT&lt;br&gt;Operation_libelle&amp;nbsp; &amp;nbsp; &amp;nbsp; &amp;nbsp;VARCHAR(255)&lt;br&gt;Operation_date&amp;nbsp; &amp;nbsp; &amp;nbsp; &amp;nbsp; &amp;nbsp; Date&lt;br&gt;montant_debit&amp;nbsp; &amp;nbsp; &amp;nbsp; &amp;nbsp; &amp;nbsp; &amp;nbsp; Monnaie&lt;br&gt;montant_credit&amp;nbsp; &amp;nbsp; &amp;nbsp; &amp;nbsp; &amp;nbsp; &amp;nbsp;Monnaie" style="rounded=0;whiteSpace=wrap;html=1;align=left;" vertex="1" parent="1">
          <mxGeometry x="34" y="2198" width="260" height="136" as="geometry" />
        </mxCell>
        <mxCell id="oa8Oe37T74u4FuCG3CYa-250" value="" style="endArrow=none;html=1;rounded=0;exitX=0;exitY=0.25;exitDx=0;exitDy=0;" edge="1" parent="1">
          <mxGeometry width="50" height="50" relative="1" as="geometry">
            <mxPoint x="34.2" y="2224" as="sourcePoint" />
            <mxPoint x="295.99998779296874" y="2225" as="targetPoint" />
          </mxGeometry>
        </mxCell>
        <mxCell id="oa8Oe37T74u4FuCG3CYa-251" value="0,n" style="text;html=1;align=center;verticalAlign=middle;resizable=0;points=[];autosize=1;strokeColor=none;fillColor=none;" vertex="1" parent="1">
          <mxGeometry x="171.2" y="2121" width="40" height="30" as="geometry" />
        </mxCell>
        <mxCell id="oa8Oe37T74u4FuCG3CYa-252" value="" style="edgeStyle=orthogonalEdgeStyle;rounded=0;orthogonalLoop=1;jettySize=auto;html=1;entryX=0.569;entryY=-0.022;entryDx=0;entryDy=0;entryPerimeter=0;" edge="1" parent="1" source="oa8Oe37T74u4FuCG3CYa-224" target="oa8Oe37T74u4FuCG3CYa-225">
          <mxGeometry relative="1" as="geometry">
            <mxPoint x="160" y="1608" as="targetPoint" />
          </mxGeometry>
        </mxCell>
        <mxCell id="oa8Oe37T74u4FuCG3CYa-256" value="1,n" style="text;html=1;align=center;verticalAlign=middle;resizable=0;points=[];autosize=1;strokeColor=none;fillColor=none;" vertex="1" parent="1">
          <mxGeometry x="306" y="1920" width="40" height="30" as="geometry" />
        </mxCell>
        <mxCell id="oa8Oe37T74u4FuCG3CYa-257" value="1,n" style="text;html=1;align=center;verticalAlign=middle;resizable=0;points=[];autosize=1;strokeColor=none;fillColor=none;" vertex="1" parent="1">
          <mxGeometry x="659" y="1753" width="40" height="30" as="geometry" />
        </mxCell>
        <mxCell id="oa8Oe37T74u4FuCG3CYa-258" value="" style="endArrow=none;html=1;rounded=0;entryX=1;entryY=0.25;entryDx=0;entryDy=0;exitX=0;exitY=0.25;exitDx=0;exitDy=0;" edge="1" parent="1">
          <mxGeometry width="50" height="50" relative="1" as="geometry">
            <mxPoint x="697" y="1737" as="sourcePoint" />
            <mxPoint x="957" y="1737" as="targetPoint" />
          </mxGeometry>
        </mxCell>
        <mxCell id="oa8Oe37T74u4FuCG3CYa-260" value="3) MPD" style="rounded=0;whiteSpace=wrap;html=1;" vertex="1" parent="1">
          <mxGeometry y="1483" width="260" height="40" as="geometry" />
        </mxCell>
        <mxCell id="oa8Oe37T74u4FuCG3CYa-266" value="" style="endArrow=none;html=1;rounded=0;entryX=1;entryY=0.25;entryDx=0;entryDy=0;" edge="1" parent="1" target="oa8Oe37T74u4FuCG3CYa-224">
          <mxGeometry width="50" height="50" relative="1" as="geometry">
            <mxPoint x="400" y="1571" as="sourcePoint" />
            <mxPoint x="610" y="1571" as="targetPoint" />
          </mxGeometry>
        </mxCell>
        <mxCell id="oa8Oe37T74u4FuCG3CYa-269" value="" style="endArrow=classic;startArrow=classic;html=1;rounded=0;exitX=1;exitY=0;exitDx=0;exitDy=0;entryX=0.885;entryY=1.233;entryDx=0;entryDy=0;entryPerimeter=0;" edge="1" parent="1">
          <mxGeometry width="50" height="50" relative="1" as="geometry">
            <mxPoint x="294" y="1007" as="sourcePoint" />
            <mxPoint x="688.4000000000001" y="886.9899999999998" as="targetPoint" />
          </mxGeometry>
        </mxCell>
        <mxCell id="oa8Oe37T74u4FuCG3CYa-270" value="" style="endArrow=classic;startArrow=classic;html=1;rounded=0;exitX=1;exitY=0;exitDx=0;exitDy=0;entryX=0.885;entryY=1.233;entryDx=0;entryDy=0;entryPerimeter=0;" edge="1" parent="1">
          <mxGeometry width="50" height="50" relative="1" as="geometry">
            <mxPoint x="301.6" y="1915" as="sourcePoint" />
            <mxPoint x="696.0000000000001" y="1794.9899999999998" as="targetPoint" />
          </mxGeometry>
        </mxCell>
        <mxCell id="oa8Oe37T74u4FuCG3CYa-265" value="" style="endArrow=none;html=1;rounded=0;exitX=1.005;exitY=0.297;exitDx=0;exitDy=0;exitPerimeter=0;" edge="1" parent="1">
          <mxGeometry width="50" height="50" relative="1" as="geometry">
            <mxPoint x="631.7" y="530.3699999999999" as="sourcePoint" />
            <mxPoint x="365.6" y="528" as="targetPoint" />
          </mxGeometry>
        </mxCell>
      </root>
    </mxGraphModel>
  </diagram>
</mxfile>
